<?xml version="1.0" encoding="utf-8"?>
<!-- Generator: Adobe Illustrator 23.0.3, SVG Export Plug-In . SVG Version: 6.00 Build 0)  -->
<svg version="1.1" id="Capa_1" xmlns="http://www.w3.org/2000/svg" xmlns:xlink="http://www.w3.org/1999/xlink" x="0px" y="0px"
	 viewBox="0 0 426.7 426.7" style="enable-background:new 0 0 426.7 426.7;" xml:space="preserve">
<style type="text/css">
	.st0{fill:#0063FF;}
</style>
<g>
	<g>
		<g>
			<path class="st0" d="M128,341.3c-23.6,0-42.5,19.1-42.5,42.7s18.9,42.7,42.5,42.7s42.7-19.1,42.7-42.7S151.6,341.3,128,341.3z"/>
			<path class="st0" d="M151.5,234.7h158.9c16,0,30-8.9,37.3-22L424,74.2c1.7-3,2.7-6.5,2.7-10.2c0-11.8-9.6-21.3-21.3-21.3H89.9
				L69.7,0H0v42.7h42.7l76.7,161.8l-28.8,52.3c-3.3,6.2-5.2,13.1-5.2,20.6c0,23.6,19.1,42.7,42.7,42.7h256v-42.7H137.1
				c-3,0-5.3-2.3-5.3-5.3c0-1,0.2-1.8,0.6-2.6L151.5,234.7z"/>
			<path class="st0" d="M341.3,341.3c-23.6,0-42.5,19.1-42.5,42.7s18.9,42.7,42.5,42.7c23.6,0,42.7-19.1,42.7-42.7
				S364.9,341.3,341.3,341.3z"/>
		</g>
	</g>
</g>
</svg>
