<?xml version="1.0" encoding="utf-8"?>
<!-- Generator: Adobe Illustrator 23.0.3, SVG Export Plug-In . SVG Version: 6.00 Build 0)  -->
<svg version="1.1" id="Capa_1" xmlns="http://www.w3.org/2000/svg" xmlns:xlink="http://www.w3.org/1999/xlink" x="0px" y="0px"
	 viewBox="0 0 267.3 426" style="enable-background:new 0 0 267.3 426;" xml:space="preserve">
<style type="text/css">
	.st0{fill:#1DC17B;}
</style>
<g>
	<path class="st0" d="M134,0h-0.6C59.8,0,0,59.8,0,133.4c0,48.2,22,111.8,65.2,189.1c32.1,57.3,64.6,101.2,65,101.6
		c0.9,1.2,2.3,1.9,3.8,1.9h0.1c1.6,0,3-0.8,3.9-2.1c0.3-0.5,32.6-49.3,64.5-109c43-80.6,64.8-141.6,64.8-181.5
		C267.4,59.8,207.5,0,134,0z M195.6,136.6c0,34.1-27.8,61.9-61.9,61.9s-61.9-27.8-61.9-61.9s27.8-61.9,61.9-61.9
		C167.8,74.7,195.6,102.5,195.6,136.6z"/>
</g>
</svg>
